<svg xmlns="http://www.w3.org/2000/svg" xmlns:xlink="http://www.w3.org/1999/xlink" width="500" zoomAndPan="magnify" viewBox="0 0 375 374.999991" height="500" preserveAspectRatio="xMidYMid meet" version="1.0"><defs><clipPath id="0021f1cf94"><path d="M 151.320312 106.730469 L 223.679688 106.730469 L 223.679688 179.09375 L 151.320312 179.09375 Z M 151.320312 106.730469 " clip-rule="nonzero"/></clipPath><clipPath id="7a598abf60"><path d="M 187.5 106.730469 C 167.519531 106.730469 151.320312 122.929688 151.320312 142.910156 C 151.320312 162.894531 167.519531 179.09375 187.5 179.09375 C 207.480469 179.09375 223.679688 162.894531 223.679688 142.910156 C 223.679688 122.929688 207.480469 106.730469 187.5 106.730469 " clip-rule="nonzero"/></clipPath><clipPath id="8dc5292493"><path d="M 122.472656 79.972656 L 252.222656 79.972656 L 252.222656 236.722656 L 122.472656 236.722656 Z M 122.472656 79.972656 " clip-rule="nonzero"/></clipPath><clipPath id="5905cc70cc"><path d="M 67.585938 254 L 100 254 L 100 285 L 67.585938 285 Z M 67.585938 254 " clip-rule="nonzero"/></clipPath><clipPath id="4bf7eb522f"><path d="M 195 260 L 221 260 L 221 295.113281 L 195 295.113281 Z M 195 260 " clip-rule="nonzero"/></clipPath><clipPath id="b07557bcef"><path d="M 282 260 L 307.585938 260 L 307.585938 284 L 282 284 Z M 282 260 " clip-rule="nonzero"/></clipPath><clipPath id="32e9fcc0b6"><path d="M 271 250.113281 L 280 250.113281 L 280 259 L 271 259 Z M 271 250.113281 " clip-rule="nonzero"/></clipPath><clipPath id="ee0c135cbe"><path d="M 231 250.113281 L 242 250.113281 L 242 258 L 231 258 Z M 231 250.113281 " clip-rule="nonzero"/></clipPath></defs><g clip-path="url(#0021f1cf94)"><g clip-path="url(#7a598abf60)"><path fill="#ffffff" d="M 151.320312 106.730469 L 223.679688 106.730469 L 223.679688 179.09375 L 151.320312 179.09375 Z M 151.320312 106.730469 " fill-opacity="1" fill-rule="nonzero"/></g></g><g clip-path="url(#8dc5292493)"><path fill="#7caaef" d="M 236.71875 183.320312 C 235.910156 180.546875 236.679688 178.871094 238.390625 176.8125 C 252.871094 159.402344 255.613281 139.296875 248.34375 118.679688 C 238.765625 91.554688 217.804688 80.238281 192.46875 79.972656 C 161.851562 79.671875 137.472656 103.550781 135.03125 132.9375 C 133.960938 145.878906 129.171875 156.707031 124.511719 167.949219 C 121.019531 176.398438 121.507812 179.378906 130.074219 181.304688 C 134.128906 182.207031 134.730469 184.226562 134.675781 187.566406 C 134.597656 192.660156 134.5625 197.75 134.675781 202.824219 C 134.898438 211.746094 138.695312 215.519531 147.445312 215.652344 C 154 215.765625 160.554688 215.804688 167.113281 215.878906 C 167.730469 215.710938 167.976562 216.03125 167.996094 216.613281 C 168.78125 219.292969 169.554688 221.953125 170.359375 224.632812 C 174.699219 239.25 174.960938 237.910156 186.832031 234.496094 C 203.679688 229.667969 220.527344 224.820312 237.355469 219.914062 C 244.417969 217.859375 245.394531 216.386719 243.722656 209.710938 C 241.527344 200.863281 239.214844 192.054688 236.664062 183.320312 Z M 199.398438 166.683594 C 196.84375 167.816406 194.816406 169.210938 195.246094 172.53125 C 195.699219 175.890625 193.351562 176.683594 190.796875 176.945312 C 187.808594 177.246094 185.199219 175.984375 185.332031 172.832031 C 185.5 168.535156 183.433594 168.210938 179.976562 167.761719 C 172.953125 166.816406 171.695312 163.875 174.398438 157.421875 C 175.488281 154.800781 176.425781 154.441406 179.359375 155.195312 C 183 156.160156 186.53125 158.835938 190.625 157.308594 C 192.617188 156.574219 195.191406 156.308594 195.324219 153.273438 C 195.417969 150.726562 193.574219 149.652344 191.734375 148.726562 C 188.898438 147.292969 185.96875 146.046875 183.09375 144.652344 C 177.554688 141.957031 173.027344 137.769531 173.066406 131.523438 C 173.085938 125.109375 176.464844 119.714844 182.8125 117 C 185.046875 116.039062 186.664062 114.792969 186.324219 112 C 185.855469 108.078125 188.242188 107.625 191.339844 108.117188 C 192.992188 108.304688 195.90625 107.285156 195.980469 109.757812 C 196.128906 114.960938 199.230469 116.058594 203.359375 116.886719 C 208.058594 117.828125 206.59375 121.640625 206.214844 124.640625 C 205.804688 127.921875 203.550781 129.222656 200.5625 128.261719 C 197.277344 127.203125 193.988281 127.203125 190.644531 127.261719 C 189.292969 127.28125 187.941406 127.449219 187.546875 129.054688 C 187.171875 130.5625 187.960938 131.75 189.199219 132.296875 C 191.921875 133.484375 193.96875 135.675781 196.898438 136.65625 C 202.984375 138.710938 207.945312 142.199219 208.828125 149.40625 C 209.824219 157.480469 206.949219 163.363281 199.417969 166.703125 Z M 199.398438 166.683594 " fill-opacity="1" fill-rule="nonzero"/></g><g clip-path="url(#5905cc70cc)"><path fill="#7caaef" d="M 87.296875 277.078125 C 82.09375 278.082031 78.476562 276.304688 76.769531 271.105469 C 76.597656 270.574219 76.207031 270.101562 75.871094 269.640625 C 75.769531 269.488281 75.503906 269.453125 74.90625 269.179688 C 74.90625 273.203125 74.753906 277.054688 74.953125 280.882812 C 75.113281 284.066406 73.234375 283.941406 71 284.066406 C 68.570312 284.207031 67.867188 283.386719 67.925781 280.976562 C 68.074219 273.847656 68.109375 266.722656 67.914062 259.59375 C 67.832031 256.585938 68.492188 255.027344 71.796875 255.59375 C 72.566406 255.730469 73.398438 255.558594 74.191406 255.523438 C 75.746094 255.707031 76.046875 257.113281 76.644531 258.164062 C 78.660156 261.648438 80.640625 265.152344 82.5625 268.695312 C 83.507812 270.421875 84.210938 270.261719 85.085938 268.660156 C 87.136719 264.933594 89.230469 261.222656 91.339844 257.519531 C 92.550781 255.386719 96.742188 254.152344 98.769531 255.234375 C 99.679688 255.730469 99.585938 256.550781 99.585938 257.324219 C 99.585938 265.382812 99.5625 273.457031 99.585938 281.519531 C 99.585938 284.503906 97.46875 283.871094 95.703125 283.984375 C 93.898438 284.101562 92.605469 283.90625 92.699219 281.507812 C 92.847656 277.402344 92.746094 273.285156 92.144531 268.949219 C 90.535156 271.65625 88.921875 274.367188 87.296875 277.078125 Z M 87.296875 277.078125 " fill-opacity="1" fill-rule="nonzero"/></g><g clip-path="url(#4bf7eb522f)"><path fill="#7caaef" d="M 220.410156 263.480469 C 220.226562 264.195312 220.941406 265.535156 219.523438 265.914062 C 218.28125 266.25 218.269531 267.03125 218.382812 268 C 218.980469 273.386719 216.539062 276.707031 211.554688 278.53125 C 209.628906 279.222656 209.480469 280.492188 211.335938 281.738281 C 215.492188 284.527344 216.804688 287.757812 215.183594 291.042969 C 213.71875 293.996094 208.261719 295.957031 204.585938 294.746094 C 201.683594 293.777344 198.953125 292.382812 198.449219 288.96875 C 197.964844 285.726562 199.714844 283.59375 202.433594 282.003906 C 204.734375 280.652344 204.460938 279.546875 201.625 278.058594 C 196.523438 275.382812 194.429688 271.082031 196.316406 266.570312 C 197.90625 262.765625 200.980469 260.851562 205.09375 260.472656 C 209.492188 260.066406 213.855469 261.75 218.304688 260.472656 C 220.570312 259.824219 220.503906 261.738281 220.421875 263.480469 Z M 206.945312 272.996094 C 208.777344 272.417969 211.277344 272.558594 211.449219 269.8125 C 211.625 267.207031 209.609375 266.699219 207.523438 266.617188 C 205.183594 266.539062 202.753906 267.089844 202.6875 269.742188 C 202.628906 271.875 204.886719 272.601562 206.945312 272.984375 Z M 209.433594 287.941406 C 209.433594 286.304688 208.421875 285.96875 207.164062 285.980469 C 205.714844 285.980469 204.644531 286.605469 204.804688 288.171875 C 204.964844 289.648438 206.070312 290.25 207.5 290.109375 C 208.824219 289.984375 209.550781 289.257812 209.421875 287.941406 Z M 209.433594 287.941406 " fill-opacity="1" fill-rule="nonzero"/></g><path fill="#7caaef" d="M 148.949219 268.234375 C 148.949219 271.992188 148.890625 275.75 148.972656 279.511719 C 149.015625 281.886719 149.027344 283.628906 145.675781 283.6875 C 142.128906 283.742188 142.164062 281.851562 142.199219 279.363281 C 142.269531 272.800781 142.175781 266.226562 142.257812 259.664062 C 142.28125 258.324219 141.402344 256.089844 143.386719 255.882812 C 145.78125 255.628906 148.660156 254.449219 150.570312 257.402344 C 153.4375 261.832031 156.421875 266.179688 160.152344 270.515625 C 160.152344 266.757812 160.152344 262.984375 160.152344 259.226562 C 160.152344 255.398438 162.457031 253.851562 166.050781 255.15625 C 167.433594 255.652344 167.179688 256.734375 167.179688 257.714844 C 167.203125 265.429688 167.203125 273.144531 167.179688 280.859375 C 167.179688 282.082031 167.421875 283.882812 165.714844 283.835938 C 163.644531 283.777344 161.191406 285.3125 159.496094 282.707031 C 156.308594 277.804688 153.046875 272.949219 149.8125 268.070312 C 149.523438 268.128906 149.234375 268.1875 148.9375 268.253906 Z M 148.949219 268.234375 " fill-opacity="1" fill-rule="nonzero"/><path fill="#7caaef" d="M 104.988281 269.339844 C 104.988281 265.535156 105.058594 261.738281 104.964844 257.933594 C 104.917969 255.949219 105.484375 254.980469 107.683594 255.027344 C 112.96875 255.144531 118.253906 255.15625 123.53125 255.027344 C 126.015625 254.957031 125.960938 256.386719 125.949219 258.117188 C 125.949219 259.941406 126.085938 261.601562 123.402344 261.464844 C 120.421875 261.3125 117.425781 261.484375 114.441406 261.417969 C 112.714844 261.382812 111.988281 261.992188 111.988281 263.828125 C 111.988281 265.707031 112.808594 266.238281 114.488281 266.15625 C 116.089844 266.074219 117.726562 266.328125 119.304688 266.109375 C 122.609375 265.636719 123.460938 267.101562 123.21875 270.160156 C 123.070312 271.992188 122.390625 272.558594 120.707031 272.511719 C 118.648438 272.441406 116.574219 272.558594 114.511719 272.5 C 112.855469 272.453125 111.988281 272.949219 111.988281 274.839844 C 111.988281 276.742188 112.820312 277.183594 114.5 277.136719 C 117.597656 277.054688 120.707031 277.203125 123.804688 277.089844 C 125.84375 277.007812 126.144531 278.160156 125.914062 279.695312 C 125.695312 281.160156 126.960938 283.523438 123.992188 283.546875 C 118.359375 283.59375 112.738281 283.546875 107.105469 283.570312 C 105.078125 283.570312 105.011719 282.246094 105.011719 280.769531 C 105.011719 276.960938 105.011719 273.167969 105.011719 269.363281 Z M 104.988281 269.339844 " fill-opacity="1" fill-rule="nonzero"/><path fill="#7caaef" d="M 178.949219 275.117188 C 179.734375 276.59375 180.851562 277.125 182.347656 277.066406 C 184.179688 276.996094 186.171875 276.570312 187.804688 277.125 C 189.015625 277.539062 191.261719 274.75 191.421875 278.070312 C 191.539062 280.445312 192.308594 282.878906 188.265625 283.558594 C 180.226562 284.898438 174.492188 282.785156 171.53125 276.421875 C 168.273438 269.410156 173.710938 260.609375 181.4375 260.496094 C 183.707031 260.460938 186.019531 260.054688 188.230469 261.058594 C 191.179688 262.398438 192.988281 264.207031 192.953125 267.851562 C 192.929688 271.402344 191.03125 273.007812 188.230469 274.253906 C 185.273438 275.566406 182.128906 274.816406 178.949219 275.117188 Z M 182.855469 267.34375 C 181.496094 267.527344 179.457031 266.90625 179.363281 268.601562 C 179.285156 269.960938 181.34375 270.191406 182.589844 270.066406 C 183.808594 269.9375 185.859375 269.960938 185.824219 268.371094 C 185.777344 266.503906 183.796875 267.863281 182.867188 267.34375 Z M 182.855469 267.34375 " fill-opacity="1" fill-rule="nonzero"/><path fill="#7caaef" d="M 246.644531 271.265625 C 246.761719 278.75 241.554688 283.972656 233.953125 283.984375 C 227.804688 283.984375 222.011719 278.371094 221.828125 272.210938 C 221.632812 265.855469 226.769531 260.539062 233.207031 260.460938 C 241.542969 260.355469 246.542969 264.378906 246.65625 271.253906 Z M 234.3125 277.203125 C 237.742188 277.238281 239.722656 275.335938 239.746094 271.96875 C 239.757812 268.625 237.742188 266.605469 234.390625 266.628906 C 231.246094 266.652344 228.738281 268.992188 228.738281 271.886719 C 228.738281 274.804688 231.214844 277.160156 234.324219 277.191406 Z M 234.3125 277.203125 " fill-opacity="1" fill-rule="nonzero"/><g clip-path="url(#b07557bcef)"><path fill="#7caaef" d="M 295.203125 260.472656 C 302.03125 259.605469 307.328125 265.359375 307.28125 271.300781 C 307.226562 279.074219 302.136719 284.042969 294.558594 283.996094 C 287.992188 283.964844 282.488281 278.265625 282.519531 271.53125 C 282.542969 265.039062 287.785156 260.472656 295.203125 260.472656 Z M 295.097656 277.191406 C 298.472656 277.191406 300.464844 275.199219 300.394531 271.875 C 300.328125 268.613281 298.183594 266.570312 294.902344 266.640625 C 291.769531 266.710938 289.363281 269.085938 289.441406 272.039062 C 289.523438 275.09375 291.828125 277.183594 295.097656 277.191406 Z M 295.097656 277.191406 " fill-opacity="1" fill-rule="nonzero"/></g><path fill="#7caaef" d="M 261.894531 260.472656 C 262.699219 260.472656 263.507812 260.449219 264.300781 260.472656 C 267.539062 260.5625 269.796875 264.289062 267.824219 266.859375 C 266.652344 268.394531 264.289062 267.367188 262.492188 267.011719 C 258.554688 266.238281 255.546875 268.3125 255.640625 271.957031 C 255.722656 274.886719 257.183594 276.742188 260.167969 277.066406 C 261.527344 277.214844 262.929688 276.917969 264.277344 277.101562 C 265.488281 277.261719 267.007812 275.488281 267.652344 276.972656 C 268.285156 278.425781 267.953125 280.339844 267.929688 282.046875 C 267.929688 282.855469 267.203125 283.085938 266.5 283.292969 C 256.597656 286.199219 248.015625 280.59375 248.648438 270.746094 C 248.984375 265.464844 253.464844 260.667969 258.773438 260.472656 C 259.808594 260.4375 260.835938 260.472656 261.871094 260.472656 Z M 261.894531 260.472656 " fill-opacity="1" fill-rule="nonzero"/><path fill="#7caaef" d="M 136.84375 269.5 C 136.84375 273.398438 136.75 277.308594 136.878906 281.207031 C 136.96875 284.296875 134.933594 283.882812 132.960938 284.019531 C 130.808594 284.160156 129.910156 283.535156 129.945312 281.183594 C 130.058594 273.386719 130.09375 265.578125 129.945312 257.785156 C 129.886719 254.914062 131.5 255.050781 133.445312 255.039062 C 135.414062 255.039062 137.0625 254.945312 136.914062 257.808594 C 136.71875 261.695312 136.867188 265.601562 136.855469 269.511719 Z M 136.84375 269.5 " fill-opacity="1" fill-rule="nonzero"/><path fill="#7caaef" d="M 279.179688 271.875 C 279.179688 274.96875 279.113281 278.070312 279.203125 281.160156 C 279.296875 284.171875 277.292969 283.917969 275.277344 284.03125 C 273.15625 284.148438 272.179688 283.59375 272.238281 281.207031 C 272.375 275.140625 272.386719 269.050781 272.238281 262.984375 C 272.167969 260.273438 273.746094 260.378906 275.542969 260.472656 C 277.257812 260.550781 279.378906 259.835938 279.214844 262.9375 C 279.054688 265.914062 279.179688 268.902344 279.179688 271.875 Z M 279.179688 271.875 " fill-opacity="1" fill-rule="nonzero"/><g clip-path="url(#32e9fcc0b6)"><path fill="#7caaef" d="M 279.757812 253.828125 C 279.734375 257.082031 277.648438 258.199219 275.472656 258.210938 C 273.308594 258.210938 271.570312 256.503906 271.59375 254.199219 C 271.613281 251.84375 272.800781 250 275.609375 250.113281 C 278.238281 250.21875 279.527344 251.707031 279.757812 253.828125 Z M 279.757812 253.828125 " fill-opacity="1" fill-rule="nonzero"/></g><g clip-path="url(#ee0c135cbe)"><path fill="#7caaef" d="M 241.117188 251.164062 C 238.617188 254.035156 237.996094 258.269531 233.195312 257.738281 C 231.246094 257.519531 230.914062 257.253906 231.949219 255.328125 C 234.632812 250.324219 234.496094 250.242188 241.117188 251.164062 Z M 241.117188 251.164062 " fill-opacity="1" fill-rule="nonzero"/></g></svg>